<?xml version="1.0" encoding="utf-8"?>
<svg xmlns="http://www.w3.org/2000/svg"
	xmlns:xlink="http://www.w3.org/1999/xlink"
	width="64px" height="64px" viewBox="0 0 64 64">
<path fillRule="evenodd" d="M 63.14 10.69C 63.14 10.69 60.16 13.64 60.16 13.64 60.16 13.64 50.26 3.8 50.26 3.8 50.26 3.8 53.23 0.85 53.23 0.85 54.32-0.24 56.04-0.3 57.07 0.72 57.07 0.72 63.26 6.88 63.26 6.88 64.29 7.9 64.23 9.6 63.14 10.69ZM 36.86 36.81C 36.86 36.81 26.96 26.96 26.96 26.96 26.96 26.96 48.75 5.3 48.75 5.3 48.75 5.3 58.66 15.15 58.66 15.15 58.66 15.15 36.86 36.81 36.86 36.81ZM 35.48 38.18C 35.48 38.18 21.61 42.12 21.61 42.12 21.61 42.12 25.58 28.33 25.58 28.33 25.58 28.33 35.48 38.18 35.48 38.18ZM 12.39 8.23C 8.97 8.23 6.2 11 6.2 14.43 6.2 14.43 6.2 51.61 6.2 51.61 6.2 55.03 8.97 57.8 12.39 57.8 12.39 57.8 49.57 57.8 49.57 57.8 53 57.8 55.77 55.03 55.77 51.61 55.77 51.61 55.77 26.82 55.77 26.82 55.77 26.82 61.97 20.62 61.97 20.62 61.97 20.62 61.97 53.67 61.97 53.67 61.97 59.38 57.34 64 51.64 64 51.64 64 10.33 64 10.33 64 4.62 64-0 59.38-0 53.67-0 53.67-0 12.36-0 12.36-0 6.66 4.62 2.03 10.33 2.03 10.33 2.03 43.38 2.03 43.38 2.03 43.38 2.03 37.18 8.23 37.18 8.23 37.18 8.23 12.39 8.23 12.39 8.23Z" fill="rgb(25,187,155)"/></svg>