<?xml version="1.0" encoding="utf-8"?>
<svg xmlns="http://www.w3.org/2000/svg"
	xmlns:xlink="http://www.w3.org/1999/xlink"
	width="64px" height="64px" viewBox="0 0 64 64">
<path fillRule="evenodd" d="M 58 36C 58 36 58 32 58 32 58 32 58 28 58 28 58 28 64 28 64 28 64 28 64 36 64 36 64 36 58 36 58 36ZM 32 58C 17.64 58 6 46.36 6 32 6 17.64 17.64 6 32 6 46.36 6 58 17.64 58 32 58 46.36 46.36 58 32 58ZM 32 12C 20.95 12 12 20.95 12 32 12 43.05 20.95 52 32 52 43.05 52 52 43.05 52 32 52 20.95 43.05 12 32 12ZM 32 46C 24.27 46 18 39.73 18 32 18 24.27 24.27 18 32 18 39.73 18 46 24.27 46 32 46 39.73 39.73 46 32 46ZM 36 64C 36 64 28 64 28 64 28 64 28 58 28 58 28 58 32 58 32 58 32 58 36 58 36 58 36 58 36 64 36 64ZM-0 36C-0 36-0 28-0 28-0 28 6 28 6 28 6 28 6 32 6 32 6 32 6 36 6 36 6 36-0 36-0 36ZM 28-0C 28-0 36-0 36-0 36-0 36 6 36 6 36 6 32 6 32 6 32 6 28 6 28 6 28 6 28-0 28-0Z" fill="rgb(25,187,155)"/></svg>