<?xml version="1.0" encoding="utf-8"?>
<svg xmlns="http://www.w3.org/2000/svg"
	xmlns:xlink="http://www.w3.org/1999/xlink"
	width="51px" height="64px" viewBox="0 0 51 64">
<path fillRule="evenodd" d="M 36.12 9.37C 22.88 2.47 11.69 11.45 8.5 17.07 3.55 25.79 7.89 37.4 14.87 42.67 23.37 49.07 35.44 48.36 38.46 40.16 42.99 27.84 34 20.81 29.78 20.35 22.05 19.52 19.95 23.3 18.47 27.08 14.87 36.27 25.5 36.27 25.5 36.27 25.5 36.27 21.25 25.6 27.75 26.92 32.21 27.83 35.76 31.63 33.64 35.37 30.45 40.99 24.34 45.69 18.65 40.74 8.6 32 10.74 24.41 12.5 21.12 13.83 18.64 18.81 9.11 31.91 14.87 47.12 21.56 46.3 36.54 44.76 44.11 36.92 53.59 23.51 56.24 12.75 49.74 0.55 42.38-3.63 26.08 3.42 13.34 10.46 0.59 26.05-3.78 38.25 3.58 48.19 9.58 52.8 21.51 50.36 32.62 49.16 25.69 45.77 14.39 36.12 9.37ZM 8.5 49.07C 8.5 49.07 8.75 52.31 10.62 53.33 12.41 54.38 14.87 53.33 14.87 53.33 14.87 53.33 10.06 61.84 10.06 61.84 8.88 63.9 6.28 64.61 4.25 63.42 2.22 62.22 1.52 59.58 2.69 57.51 2.69 57.51 8.5 49.07 8.5 49.07Z" fill="rgb(25,187,155)"/></svg>