<?xml version="1.0" encoding="utf-8"?>
<svg xmlns="http://www.w3.org/2000/svg"
	xmlns:xlink="http://www.w3.org/1999/xlink"
	width="16px" height="16px" viewBox="0 0 16 16">
<path fillRule="evenodd" d="M 9.5 12.97C 7.94 12.97 6.53 12.41 5.41 11.5 5.39 11.54 5.4 11.59 5.36 11.63 5.36 11.63 4.28 12.7 4.28 12.7 4.28 12.7 4.34 12.77 4.34 12.77 4.56 12.97 4.56 13.32 4.34 13.53 4.34 13.53 2.06 15.81 2.06 15.81 1.85 16.02 1.5 16.02 1.29 15.81 1.29 15.81 0.15 14.67 0.15 14.67-0.06 14.46-0.06 14.12 0.15 13.91 0.15 13.91 2.44 11.62 2.44 11.62 2.65 11.41 2.99 11.41 3.2 11.62 3.2 11.62 3.26 11.69 3.26 11.69 3.26 11.69 4.34 10.61 4.34 10.61 4.37 10.58 4.43 10.58 4.47 10.56 3.56 9.44 2.99 8.04 2.99 6.49 2.99 2.9 5.9 0 9.5 0 13.09 0 16.01 2.9 16.01 6.49 16.01 10.07 13.09 12.97 9.5 12.97ZM 9.5 2.5C 7.29 2.5 5.5 4.28 5.5 6.49 5.5 8.69 7.29 10.48 9.5 10.48 11.71 10.48 13.5 8.69 13.5 6.49 13.5 4.28 11.71 2.5 9.5 2.5Z" fill="rgb(255,255,255)"/></svg>